<?xml version="1.0" encoding="UTF-8" standalone="no"?>
<svg
   version="1.1"
   x="0px"
   y="0px"
   viewBox="0 0 100 100"
   style="enable-background:new 0 0 100 100;"
   xml:space="preserve"
   id="svg107"
   xmlns="http://www.w3.org/2000/svg"
   xmlns:svg="http://www.w3.org/2000/svg"><defs
   id="defs111">
	

		
		
		
		
		
		
		
	
			
			
			
			
		
				
			</defs>
<g
   id="g64"
   style="fill:#c39b7c;fill-opacity:1">
				<path
   d="m 38.5,83.5 c -0.288,0 -0.574,-0.083 -0.822,-0.246 C 37.255,82.977 37,82.505 37,82 V 28 c 0,-0.597 0.354,-1.138 0.902,-1.375 l 23,-10 c 0.463,-0.202 0.997,-0.155 1.42,0.121 C 62.745,17.023 63,17.495 63,18 v 54 c 0,0.597 -0.355,1.138 -0.902,1.375 l -23,10 C 38.906,83.459 38.703,83.5 38.5,83.5 Z M 40,28.984 V 79.713 L 60,71.017 V 20.288 Z"
   id="path62"
   style="fill:#c39b7c;fill-opacity:1" />
			</g><g
   id="g68"
   style="fill:#c39b7c;fill-opacity:1">
				<path
   d="m 84.5,83.5 c -0.201,0 -0.403,-0.041 -0.594,-0.123 l -23.186,-10 c -0.761,-0.328 -1.111,-1.211 -0.783,-1.972 0.327,-0.761 1.209,-1.113 1.971,-0.783 L 83,79.719 V 28.982 L 61.027,19.375 c -0.76,-0.332 -1.105,-1.216 -0.773,-1.976 0.331,-0.759 1.215,-1.106 1.975,-0.773 l 22.872,10 C 85.647,26.864 86,27.404 86,28 v 54 c 0,0.505 -0.254,0.976 -0.676,1.253 C 85.076,83.417 84.789,83.5 84.5,83.5 Z"
   id="path66"
   style="fill:#c39b7c;fill-opacity:1" />
			</g><path
   d="m 38.627,83.501 c -0.198,0 -0.4,-0.04 -0.595,-0.124 l -23.128,-10 C 14.355,73.139 14,72.598 14,72 V 18 c 0,-0.506 0.256,-0.978 0.68,-1.256 0.423,-0.276 0.957,-0.322 1.423,-0.118 l 22.815,10 c 0.759,0.333 1.103,1.217 0.771,1.976 -0.332,0.759 -1.216,1.105 -1.977,0.772 L 17,20.296 v 50.719 l 22.224,9.609 c 0.76,0.329 1.11,1.212 0.781,1.972 -0.245,0.566 -0.798,0.905 -1.378,0.905 z"
   id="path70"
   style="fill:#c39b7c;fill-opacity:1" /><g
   id="g76"
   style="fill:#c39b7c;fill-opacity:1">
				<path
   style="stroke:#000000;stroke-width:3;stroke-linecap:round;stroke-linejoin:round;stroke-miterlimit:10;fill:#c39b7c;fill-opacity:1"
   d="M 38.5,61"
   id="path74" />
			</g><g
   id="g82"
   style="fill:#c39b7c;fill-opacity:1">
			<path
   d="m 30.161,61.876 c -0.199,0 -0.402,-0.04 -0.598,-0.125 l -6.324,-2.75 c -0.759,-0.33 -1.108,-1.214 -0.777,-1.974 0.331,-0.759 1.211,-1.11 1.975,-0.777 L 30.761,59 c 0.759,0.33 1.107,1.214 0.777,1.974 -0.246,0.564 -0.798,0.902 -1.377,0.902 z"
   id="path80"
   style="fill:#c39b7c;fill-opacity:1" />
		</g><g
   id="g86"
   style="fill:#c39b7c;fill-opacity:1">
			<path
   d="m 76.161,61.876 c -0.199,0 -0.402,-0.04 -0.598,-0.125 l -6.324,-2.75 c -0.759,-0.33 -1.107,-1.214 -0.777,-1.974 0.331,-0.759 1.212,-1.11 1.975,-0.777 L 76.761,59 c 0.759,0.33 1.107,1.214 0.777,1.974 -0.246,0.564 -0.798,0.902 -1.377,0.902 z"
   id="path84"
   style="fill:#c39b7c;fill-opacity:1" />
		</g><g
   id="g90"
   style="fill:#c39b7c;fill-opacity:1">
			<path
   d="m 46.839,61.876 c -0.579,0 -1.131,-0.337 -1.377,-0.902 -0.33,-0.76 0.019,-1.644 0.777,-1.974 l 6.324,-2.75 c 0.763,-0.332 1.645,0.018 1.975,0.777 0.33,0.76 -0.019,1.644 -0.777,1.974 l -6.324,2.75 c -0.196,0.085 -0.399,0.125 -0.598,0.125 z"
   id="path88"
   style="fill:#c39b7c;fill-opacity:1" />
		</g><g
   id="g94"
   style="fill:#c39b7c;fill-opacity:1">
			<path
   d="m 30.161,43.876 c -0.199,0 -0.402,-0.04 -0.598,-0.125 l -6.324,-2.75 c -0.759,-0.33 -1.108,-1.214 -0.777,-1.974 0.331,-0.759 1.211,-1.109 1.975,-0.777 L 30.761,41 c 0.759,0.33 1.107,1.214 0.777,1.974 -0.246,0.564 -0.798,0.902 -1.377,0.902 z"
   id="path92"
   style="fill:#c39b7c;fill-opacity:1" />
		</g><g
   id="g98"
   style="fill:#c39b7c;fill-opacity:1">
			<path
   d="m 76.161,43.876 c -0.199,0 -0.402,-0.04 -0.598,-0.125 l -6.324,-2.75 c -0.759,-0.33 -1.107,-1.214 -0.777,-1.974 0.331,-0.759 1.212,-1.109 1.975,-0.777 L 76.761,41 c 0.759,0.33 1.107,1.214 0.777,1.974 -0.246,0.564 -0.798,0.902 -1.377,0.902 z"
   id="path96"
   style="fill:#c39b7c;fill-opacity:1" />
		</g><g
   id="g102"
   style="fill:#c39b7c;fill-opacity:1">
			<path
   d="m 46.839,43.876 c -0.579,0 -1.131,-0.337 -1.377,-0.902 -0.33,-0.76 0.019,-1.644 0.777,-1.974 l 6.324,-2.75 c 0.763,-0.331 1.645,0.018 1.975,0.777 0.33,0.76 -0.019,1.644 -0.777,1.974 l -6.324,2.75 c -0.196,0.085 -0.399,0.125 -0.598,0.125 z"
   id="path100"
   style="fill:#c39b7c;fill-opacity:1" />
		</g>
</svg>
