<?xml version="1.0" encoding="UTF-8" standalone="no"?>
<svg
   version="1.1"
   x="0px"
   y="0px"
   viewBox="0 0 100 100"
   xml:space="preserve"
   id="svg38"
   xmlns="http://www.w3.org/2000/svg"
   xmlns:svg="http://www.w3.org/2000/svg"><defs
   id="defs42">
	

		
		
		
	
			
		</defs>
<path
   d="m 49.928,70.75 c -0.456,0 -0.887,-0.216 -1.171,-0.571 l -4.83,-6.042 -7.056,3.151 c -0.42,0.189 -0.898,0.172 -1.305,-0.039 -0.406,-0.212 -0.693,-0.597 -0.78,-1.046 L 33.315,58.61 25.598,58.124 c -0.456,-0.029 -0.875,-0.265 -1.137,-0.641 -0.262,-0.376 -0.337,-0.85 -0.205,-1.288 l 2.227,-7.404 -6.607,-4.018 c -0.392,-0.237 -0.652,-0.641 -0.709,-1.095 -0.057,-0.454 0.097,-0.91 0.417,-1.236 l 5.413,-5.521 -3.983,-6.627 c -0.236,-0.392 -0.28,-0.87 -0.119,-1.299 0.16,-0.429 0.508,-0.761 0.944,-0.901 l 7.358,-2.373 -0.445,-7.72 c -0.026,-0.457 0.157,-0.901 0.498,-1.206 0.342,-0.305 0.803,-0.437 1.255,-0.359 l 7.617,1.318 3.192,-7.04 c 0.188,-0.417 0.558,-0.725 1.002,-0.836 0.442,-0.112 0.914,-0.015 1.277,0.265 l 6.133,4.706 6.098,-4.753 c 0.36,-0.282 0.83,-0.383 1.275,-0.275 0.444,0.108 0.816,0.413 1.008,0.829 l 3.245,7.02 7.608,-1.374 c 0.45,-0.08 0.913,0.047 1.257,0.351 0.344,0.302 0.531,0.744 0.508,1.201 l -0.39,7.722 7.375,2.319 c 0.437,0.137 0.786,0.466 0.95,0.893 0.164,0.428 0.124,0.906 -0.109,1.3 l -3.932,6.656 5.452,5.481 c 0.323,0.324 0.479,0.778 0.426,1.233 -0.053,0.454 -0.312,0.859 -0.7,1.1 l -6.575,4.065 2.28,7.388 c 0.135,0.438 0.062,0.912 -0.196,1.29 -0.259,0.378 -0.675,0.616 -1.132,0.648 l -7.713,0.545 -1.413,7.6 c -0.084,0.45 -0.368,0.837 -0.772,1.051 -0.403,0.215 -0.884,0.233 -1.304,0.049 l -7.082,-3.102 -4.783,6.082 c -0.283,0.36 -0.716,0.581 -1.173,0.581 -0.002,0.001 -0.004,0.001 -0.006,0.001 z m -5.555,-9.96 c 0.445,0 0.881,0.198 1.172,0.562 l 4.374,5.467 4.331,-5.499 c 0.424,-0.536 1.153,-0.72 1.78,-0.446 l 6.414,2.809 1.279,-6.883 c 0.125,-0.671 0.687,-1.174 1.369,-1.222 l 6.985,-0.493 -2.065,-6.691 c -0.201,-0.652 0.063,-1.359 0.645,-1.718 l 5.954,-3.682 -4.938,-4.964 c -0.481,-0.484 -0.575,-1.233 -0.228,-1.82 l 3.561,-6.027 -6.679,-2.101 c -0.651,-0.205 -1.082,-0.824 -1.048,-1.506 l 0.353,-6.992 -6.889,1.244 c -0.674,0.114 -1.342,-0.227 -1.628,-0.848 l -2.938,-6.356 -5.521,4.304 c -0.539,0.422 -1.294,0.421 -1.835,0.008 l -5.555,-4.262 -2.89,6.375 c -0.282,0.623 -0.95,0.977 -1.622,0.859 l -6.899,-1.194 0.403,6.991 c 0.04,0.683 -0.387,1.305 -1.037,1.515 l -6.661,2.15 3.606,6.001 c 0.353,0.585 0.265,1.335 -0.214,1.822 l -4.902,4.999 5.983,3.639 c 0.584,0.354 0.854,1.059 0.657,1.713 l -2.017,6.705 6.988,0.441 c 0.682,0.043 1.248,0.541 1.378,1.212 l 1.332,6.875 6.39,-2.855 c 0.198,-0.09 0.406,-0.132 0.612,-0.132 z"
   id="path23"
   style="fill:#c39b7c;fill-opacity:1" /><g
   id="g29"
   style="fill:#c39b7c;fill-opacity:1">
			<path
   d="m 21.414,90.221 c -0.186,0 -0.371,-0.034 -0.55,-0.104 -0.556,-0.219 -0.929,-0.746 -0.949,-1.344 L 19.347,72.404 2.977,71.835 C 2.379,71.814 1.852,71.441 1.633,70.886 1.414,70.33 1.545,69.698 1.968,69.276 L 17.525,53.719 c 0.586,-0.586 1.535,-0.586 2.121,0 0.586,0.586 0.586,1.535 0,2.121 L 6.53,68.957 20.848,69.454 c 0.788,0.027 1.42,0.659 1.447,1.447 L 22.792,85.219 35.91,72.104 c 0.586,-0.586 1.535,-0.586 2.121,0 0.586,0.586 0.586,1.535 0,2.121 L 22.475,89.781 c -0.287,0.287 -0.67,0.44 -1.061,0.44 z"
   id="path27"
   style="fill:#c39b7c;fill-opacity:1" />
		</g><g
   id="g33"
   style="fill:#c39b7c;fill-opacity:1">
			<path
   d="m 78.586,90.221 c -0.391,0 -0.774,-0.152 -1.061,-0.439 L 61.969,74.225 c -0.586,-0.586 -0.586,-1.535 0,-2.121 0.586,-0.586 1.535,-0.586 2.121,0 L 77.207,85.22 77.704,70.902 c 0.027,-0.788 0.659,-1.42 1.447,-1.447 L 93.469,68.958 80.354,55.84 c -0.586,-0.586 -0.586,-1.535 0,-2.121 0.586,-0.586 1.535,-0.586 2.121,0 l 15.557,15.557 c 0.423,0.422 0.554,1.055 0.335,1.61 -0.219,0.556 -0.746,0.929 -1.344,0.949 l -16.369,0.568 -0.568,16.369 c -0.021,0.598 -0.394,1.125 -0.949,1.344 -0.18,0.071 -0.366,0.105 -0.551,0.105 z"
   id="path31"
   style="fill:#c39b7c;fill-opacity:1" />
		</g>
</svg>
