<?xml version="1.0" encoding="UTF-8" standalone="no"?>
<svg
   version="1.1"
   x="0px"
   y="0px"
   viewBox="0 0 100 100"
   style="enable-background:new 0 0 100 100;"
   xml:space="preserve"
   id="svg6233"
   xmlns="http://www.w3.org/2000/svg"
   xmlns:svg="http://www.w3.org/2000/svg"><defs
   id="defs6237">
	

		
		
		
		
		
		
		
		
	
			
		
			
		
			
			
		</defs>
<path
   d="m 14.458,55.449 c -0.384,0 -0.768,-0.146 -1.061,-0.439 L 1.791,43.403 c -0.586,-0.586 -0.586,-1.535 0,-2.121 L 29.368,13.705 c 0.281,-0.281 0.663,-0.439 1.061,-0.439 v 0 c 0.397,0 0.779,0.158 1.061,0.439 l 11.606,11.607 c 0.586,0.586 0.586,1.535 0,2.121 L 15.519,55.01 c -0.293,0.293 -0.677,0.439 -1.061,0.439 z M 4.973,42.343 14.458,51.828 39.914,26.373 30.429,16.887 Z"
   id="path6192"
   style="fill:#c39b7c;fill-opacity:1" /><path
   d="m 52.399,87.734 c -0.397,0 -0.779,-0.158 -1.061,-0.439 L 17.287,53.242 c -0.586,-0.586 -0.586,-1.535 0,-2.121 0.586,-0.586 1.535,-0.586 2.121,0 L 52.399,84.113 73.191,63.32 57.108,47.457 c -0.59,-0.582 -0.596,-1.532 -0.015,-2.122 0.582,-0.589 1.53,-0.596 2.122,-0.015 l 17.158,16.925 c 0.284,0.281 0.445,0.664 0.446,1.063 10e-4,0.399 -0.157,0.783 -0.439,1.065 L 53.46,87.295 c -0.281,0.281 -0.663,0.439 -1.061,0.439 z"
   id="path6196"
   style="fill:#c39b7c;fill-opacity:1" /><g
   id="g6202"
   style="fill:#c39b7c;fill-opacity:1">
			<path
   d="m 50.468,37.46 c -0.229,0 -0.461,-0.052 -0.679,-0.163 L 38.588,31.599 c -0.739,-0.376 -1.033,-1.278 -0.657,-2.017 0.376,-0.739 1.28,-1.032 2.017,-0.657 l 11.201,5.698 c 0.739,0.376 1.033,1.278 0.657,2.017 -0.265,0.52 -0.792,0.82 -1.338,0.82 z"
   id="path6200"
   style="fill:#c39b7c;fill-opacity:1" />
		</g><g
   id="g6206"
   style="fill:#c39b7c;fill-opacity:1">
			<path
   d="m 68.017,69.41 c -0.384,0 -0.768,-0.146 -1.061,-0.439 l -6.192,-6.192 c -0.586,-0.586 -0.586,-1.535 0,-2.121 0.586,-0.586 1.535,-0.586 2.121,0 l 6.192,6.192 c 0.586,0.586 0.586,1.535 0,2.121 -0.293,0.293 -0.677,0.439 -1.06,0.439 z"
   id="path6204"
   style="fill:#c39b7c;fill-opacity:1" />
		</g><g
   id="g6210"
   style="fill:#c39b7c;fill-opacity:1">
			<path
   d="m 62.729,75.436 c -0.384,0 -0.768,-0.146 -1.06,-0.439 l -6.562,-6.562 c -0.586,-0.586 -0.586,-1.535 0,-2.121 0.586,-0.586 1.535,-0.586 2.121,0 l 6.562,6.562 c 0.586,0.586 0.586,1.535 0,2.121 -0.294,0.292 -0.678,0.439 -1.061,0.439 z"
   id="path6208"
   style="fill:#c39b7c;fill-opacity:1" />
		</g><g
   id="g6214"
   style="fill:#c39b7c;fill-opacity:1">
			<path
   d="m 57.703,81.724 c -0.384,0 -0.768,-0.146 -1.061,-0.439 L 49.45,74.093 c -0.586,-0.586 -0.586,-1.535 0,-2.121 0.586,-0.586 1.535,-0.586 2.121,0 l 7.192,7.192 c 0.586,0.586 0.586,1.535 0,2.121 -0.292,0.292 -0.676,0.439 -1.06,0.439 z"
   id="path6212"
   style="fill:#c39b7c;fill-opacity:1" />
		</g><g
   id="g6218"
   style="fill:#c39b7c;fill-opacity:1">
				<path
   d="m 85.541,54.449 c -0.384,0 -0.768,-0.146 -1.061,-0.439 L 56.904,26.433 c -0.586,-0.586 -0.586,-1.535 0,-2.121 L 68.51,12.706 c 0.586,-0.586 1.535,-0.586 2.121,0 l 27.577,27.577 c 0.281,0.281 0.439,0.663 0.439,1.061 0,0.397 -0.158,0.779 -0.439,1.061 L 86.602,54.01 c -0.293,0.293 -0.677,0.439 -1.061,0.439 z M 60.086,25.372 85.541,50.828 95.027,41.343 69.571,15.887 Z"
   id="path6216"
   style="fill:#c39b7c;fill-opacity:1" />
			</g><g
   id="g6222"
   style="fill:#c39b7c;fill-opacity:1">
				<path
   d="m 46.458,59.592 c -0.384,0 -0.768,-0.146 -1.061,-0.439 L 38.619,52.375 C 38.103,51.859 38.033,51.049 38.452,50.452 L 49.241,35.098 c 0.109,-0.156 0.248,-0.29 0.408,-0.394 l 10.264,-6.698 c 0.693,-0.453 1.623,-0.259 2.075,0.436 0.453,0.693 0.258,1.623 -0.436,2.075 l -10.022,6.542 -9.898,14.086 4.826,4.826 10.508,-10.508 c 0.586,-0.586 1.535,-0.586 2.121,0 0.586,0.586 0.586,1.535 0,2.121 L 47.519,59.152 c -0.293,0.293 -0.677,0.44 -1.061,0.44 z"
   id="path6220"
   style="fill:#c39b7c;fill-opacity:1" />
			</g><g
   id="g6228"
   style="fill:#c39b7c;fill-opacity:1">
			<path
   d="m 72.432,60.815 c -0.384,0 -0.768,-0.146 -1.061,-0.44 -0.586,-0.586 -0.586,-1.535 0,-2.121 l 8.401,-8.401 c 0.586,-0.586 1.535,-0.586 2.121,0 0.586,0.586 0.586,1.535 0,2.121 l -8.401,8.401 c -0.293,0.294 -0.677,0.44 -1.06,0.44 z"
   id="path6226"
   style="fill:#c39b7c;fill-opacity:1" />
		</g>
</svg>
