<?xml version="1.0" encoding="UTF-8" standalone="no"?>
<svg
   version="1.1"
   x="0px"
   y="0px"
   viewBox="0 0 100 100"
   style="enable-background:new 0 0 100 100;"
   xml:space="preserve"
   id="svg3695"
   xmlns="http://www.w3.org/2000/svg"
   xmlns:svg="http://www.w3.org/2000/svg"><defs
   id="defs3699">
	

		
		
	
			
			
			
			
		
			
			
			
			
			
		</defs>
<g
   id="g3654"
   style="fill:#c39b7c;fill-opacity:1">
				<path
   d="m 10.6,76.475 c -0.828,0 -1.5,-0.672 -1.5,-1.5 0,-6.313 4.728,-9.49 8.283,-11.33 3.407,-1.764 5.63,-2.348 7.59,-2.863 2.104,-0.554 3.766,-0.99 6.409,-2.871 0.675,-0.48 1.611,-0.322 2.092,0.354 0.479,0.675 0.322,1.611 -0.354,2.092 -3.089,2.197 -5.176,2.746 -7.384,3.327 -1.81,0.476 -3.862,1.016 -6.975,2.626 -4.607,2.385 -6.662,5.058 -6.662,8.666 10e-4,0.827 -0.671,1.499 -1.499,1.499 z"
   id="path3652"
   style="fill:#c39b7c;fill-opacity:1" />
			</g><g
   id="g3658"
   style="fill:#c39b7c;fill-opacity:1">
				<path
   d="m 73.392,76.475 c -0.828,0 -1.5,-0.672 -1.5,-1.5 0,-3.608 -2.055,-6.281 -6.662,-8.666 -3.112,-1.61 -5.164,-2.15 -6.975,-2.626 -2.208,-0.581 -4.295,-1.13 -7.384,-3.327 -0.676,-0.48 -0.833,-1.417 -0.354,-2.092 0.481,-0.675 1.417,-0.834 2.092,-0.354 2.644,1.881 4.306,2.317 6.409,2.871 1.96,0.516 4.183,1.1 7.59,2.863 3.556,1.84 8.283,5.017 8.283,11.33 10e-4,0.829 -0.671,1.501 -1.499,1.501 z"
   id="path3656"
   style="fill:#c39b7c;fill-opacity:1" />
			</g><g
   id="g3662"
   style="fill:#c39b7c;fill-opacity:1">
				<path
   d="m 41.478,56.72 c -6.126,0 -8.452,-4.688 -10.505,-8.825 -0.288,-0.58 -0.579,-1.166 -0.882,-1.748 -0.159,-0.11 -0.48,-0.284 -0.705,-0.405 -0.823,-0.445 -1.676,-0.905 -2.008,-1.743 -0.844,-2.126 -1.303,-5.193 -1.383,-7.29 -0.036,-1.063 0.747,-1.501 2.046,-2.226 0.144,-0.08 0.334,-0.187 0.508,-0.287 -0.011,-1.691 -0.058,-2.921 -0.093,-3.849 -0.048,-1.246 -0.076,-1.999 0.031,-2.675 0.897,-5.654 5.268,-8.521 12.99,-8.521 0.828,0 1.5,0.672 1.5,1.5 0,0.828 -0.672,1.5 -1.5,1.5 -8.136,0 -9.619,3.419 -10.027,5.991 -0.061,0.386 -0.035,1.064 0.004,2.092 0.041,1.081 0.097,2.561 0.097,4.701 -0.004,1.026 -0.773,1.455 -2.048,2.167 -0.132,0.074 -0.303,0.169 -0.464,0.262 0.134,1.692 0.503,3.84 1.048,5.321 0.178,0.121 0.511,0.302 0.725,0.417 0.767,0.414 1.491,0.806 1.854,1.497 0.344,0.652 0.671,1.312 0.994,1.963 2.202,4.438 3.758,7.158 7.817,7.158 0.828,0 1.5,0.672 1.5,1.5 0,0.828 -0.671,1.5 -1.499,1.5 z"
   id="path3660"
   style="fill:#c39b7c;fill-opacity:1" />
			</g><g
   id="g3666"
   style="fill:#c39b7c;fill-opacity:1">
				<path
   d="m 42.066,56.72 c -0.828,0 -1.5,-0.672 -1.5,-1.5 0,-0.828 0.672,-1.5 1.5,-1.5 4.059,0 5.614,-2.719 7.816,-7.154 0.324,-0.653 0.651,-1.313 0.996,-1.967 0.363,-0.691 1.087,-1.083 1.854,-1.497 0.214,-0.115 0.547,-0.296 0.725,-0.417 0.546,-1.482 0.915,-3.628 1.049,-5.321 -0.161,-0.093 -0.332,-0.188 -0.464,-0.262 -1.275,-0.712 -2.043,-1.142 -2.047,-2.162 0,-2.141 0.056,-3.62 0.097,-4.7 0.039,-1.03 0.064,-1.71 0.003,-2.097 -0.408,-2.573 -1.892,-5.992 -10.027,-5.992 -0.828,0 -1.5,-0.672 -1.5,-1.5 0,-0.828 0.672,-1.5 1.5,-1.5 7.723,0 12.094,2.867 12.99,8.521 0.107,0.677 0.079,1.432 0.032,2.682 -0.035,0.927 -0.081,2.152 -0.093,3.843 0.174,0.101 0.363,0.206 0.507,0.286 1.301,0.727 2.086,1.165 2.046,2.226 -0.079,2.096 -0.538,5.162 -1.383,7.291 -0.333,0.838 -1.185,1.298 -2.008,1.743 -0.225,0.121 -0.546,0.295 -0.705,0.405 -0.304,0.583 -0.596,1.171 -0.884,1.752 -2.053,4.133 -4.379,8.82 -10.504,8.82 z"
   id="path3664"
   style="fill:#c39b7c;fill-opacity:1" />
			</g><g
   id="g3670"
   style="fill:#c39b7c;fill-opacity:1">
				<path
   d="M 41.635,87.85 C 28.768,87.85 17.683,83.876 9.579,76.358 8.972,75.795 8.936,74.845 9.5,74.238 c 0.564,-0.607 1.513,-0.642 2.12,-0.079 7.538,6.994 17.917,10.691 30.015,10.691 13.192,0 23.529,-3.534 30.722,-10.505 0.594,-0.576 1.545,-0.564 2.121,0.033 0.576,0.595 0.562,1.545 -0.033,2.121 C 66.673,84.03 55.634,87.85 41.635,87.85 Z"
   id="path3668"
   style="fill:#c39b7c;fill-opacity:1" />
			</g><g
   id="g3676"
   style="fill:#c39b7c;fill-opacity:1">
				<path
   d="m 89.393,65.341 c -0.828,0 -1.5,-0.672 -1.5,-1.5 0,-3.287 -1.879,-5.725 -6.094,-7.905 -2.865,-1.482 -4.754,-1.979 -6.421,-2.418 -2.05,-0.539 -3.987,-1.049 -6.858,-3.091 -0.676,-0.48 -0.833,-1.417 -0.354,-2.092 0.48,-0.675 1.417,-0.833 2.092,-0.354 2.426,1.726 3.952,2.127 5.884,2.635 1.817,0.479 3.877,1.021 7.036,2.655 3.311,1.713 7.715,4.673 7.715,10.569 0,0.829 -0.672,1.501 -1.5,1.501 z"
   id="path3674"
   style="fill:#c39b7c;fill-opacity:1" />
			</g><g
   id="g3680"
   style="fill:#c39b7c;fill-opacity:1">
				<path
   d="m 53.802,16.121 c -0.595,0 -1.157,-0.354 -1.393,-0.939 -0.31,-0.768 0.062,-1.642 0.831,-1.952 1.803,-0.726 3.984,-1.079 6.667,-1.079 0.828,0 1.5,0.672 1.5,1.5 0,0.828 -0.672,1.5 -1.5,1.5 -2.26,0 -4.126,0.29 -5.546,0.862 -0.183,0.074 -0.373,0.108 -0.559,0.108 z"
   id="path3678"
   style="fill:#c39b7c;fill-opacity:1" />
			</g><g
   id="g3684"
   style="fill:#c39b7c;fill-opacity:1">
				<path
   d="m 67.467,42.471 c -0.257,0 -0.516,-0.065 -0.753,-0.203 -0.717,-0.417 -0.959,-1.335 -0.543,-2.051 0.481,-0.827 0.927,-1.725 1.398,-2.676 0.3,-0.604 0.603,-1.214 0.921,-1.818 0.351,-0.669 1.035,-1.039 1.759,-1.43 0.185,-0.1 0.466,-0.252 0.63,-0.359 0.486,-1.337 0.817,-3.248 0.943,-4.779 -0.13,-0.074 -0.262,-0.148 -0.366,-0.206 -1.171,-0.654 -1.944,-1.086 -1.948,-2.095 0,-1.983 0.052,-3.352 0.09,-4.351 0.035,-0.943 0.059,-1.567 0.004,-1.913 -0.37,-2.335 -1.722,-5.439 -9.151,-5.439 -0.828,0 -1.5,-0.672 -1.5,-1.5 0,-0.828 0.672,-1.5 1.5,-1.5 7.2,0 11.276,2.682 12.114,7.969 0.102,0.636 0.074,1.337 0.03,2.497 -0.031,0.844 -0.073,1.956 -0.084,3.482 0.142,0.082 0.292,0.165 0.408,0.23 1.197,0.668 1.988,1.109 1.949,2.159 -0.074,1.946 -0.5,4.796 -1.285,6.775 -0.323,0.812 -1.129,1.247 -1.907,1.668 -0.194,0.106 -0.47,0.254 -0.617,0.353 -0.275,0.53 -0.54,1.062 -0.802,1.591 -0.473,0.952 -0.961,1.937 -1.492,2.85 -0.279,0.479 -0.781,0.746 -1.298,0.746 z"
   id="path3682"
   style="fill:#c39b7c;fill-opacity:1" />
			</g><g
   id="g3688"
   style="fill:#c39b7c;fill-opacity:1">
				<path
   d="m 84.037,69.941 c -0.501,0 -0.99,-0.251 -1.274,-0.707 -0.438,-0.704 -0.223,-1.629 0.48,-2.066 1.844,-1.147 3.563,-2.49 5.113,-3.991 0.596,-0.576 1.544,-0.562 2.121,0.033 0.576,0.595 0.562,1.545 -0.033,2.121 -1.703,1.649 -3.592,3.125 -5.615,4.384 -0.247,0.153 -0.52,0.226 -0.792,0.226 z"
   id="path3686"
   style="fill:#c39b7c;fill-opacity:1" />
			</g>
</svg>
