<?xml version="1.0" encoding="UTF-8" standalone="no"?>
<!-- Created with Inkscape (http://www.inkscape.org/) -->

<svg
   width="45.682674mm"
   height="25.26mm"
   viewBox="0 0 45.682673 25.26"
   version="1.1"
   id="svg1389"
   xmlns="http://www.w3.org/2000/svg"
   xmlns:svg="http://www.w3.org/2000/svg">
  <defs
     id="defs1386">
    <clipPath
       clipPathUnits="userSpaceOnUse"
       id="clipPath150">
      <path
         d="M 0,500 H 500 V 0 H 0 Z"
         id="path148" />
    </clipPath>
    <clipPath
       clipPathUnits="userSpaceOnUse"
       id="clipPath162">
      <path
         d="m 277.93,325.058 h 18.384 V 289.672 H 277.93 Z"
         id="path160" />
    </clipPath>
    <clipPath
       clipPathUnits="userSpaceOnUse"
       id="clipPath198">
      <path
         d="m 256.426,269.533 h 39.041 v -13.338 h -39.041 z"
         id="path196" />
    </clipPath>
    <clipPath
       clipPathUnits="userSpaceOnUse"
       id="clipPath234">
      <path
         d="m 223.387,279.177 h 13.565 v -38.876 h -13.565 z"
         id="path232" />
    </clipPath>
    <clipPath
       clipPathUnits="userSpaceOnUse"
       id="clipPath270">
      <path
         d="m 195.6,311.831 h 34.905 V 292.784 H 195.6 Z"
         id="path268" />
    </clipPath>
    <clipPath
       clipPathUnits="userSpaceOnUse"
       id="clipPath306">
      <path
         d="m 234.117,345.503 h 28.265 v -27.518 h -28.265 z"
         id="path304" />
    </clipPath>
  </defs>
  <g
     id="g1913"
     transform="translate(-7.2259873,-9.4252103)">
    <g
       aria-label="A S"
       id="text402"
       style="font-size:24.6944px;font-family:Georgia;-inkscape-font-specification:'Georgia, Normal';text-align:center;text-anchor:middle;fill:#c39b7c;stroke-width:0.2;stroke-linecap:round;stroke-miterlimit:0;paint-order:markers fill stroke">
      <path
         d="m 29.741769,26.921097 h -7.126168 v -0.856105 q 0.94051,-0.06029 1.555458,-0.241156 0.627006,-0.180867 0.627006,-0.446139 0,-0.108521 -0.02412,-0.265272 -0.02412,-0.156752 -0.07235,-0.27733 L 23.278773,21.000711 H 17.28604 q -0.337619,0.844047 -0.554659,1.471053 -0.204983,0.627006 -0.373793,1.15755 -0.156751,0.518486 -0.21704,0.844047 -0.06029,0.325561 -0.06029,0.530544 0,0.482312 0.759642,0.747584 0.759642,0.265272 1.712209,0.313503 v 0.856105 h -6.438872 v -0.856105 q 0.313503,-0.02412 0.783758,-0.132636 0.470255,-0.120578 0.7717,-0.313503 0.482313,-0.325561 0.747585,-0.675238 0.265271,-0.361734 0.518485,-0.98874 1.290186,-3.219436 2.845644,-7.234688 1.555458,-4.015252 2.773297,-7.1502829 h 0.964625 l 5.703346,14.7587629 q 0.180867,0.470255 0.409965,0.759642 0.229099,0.289388 0.639065,0.566717 0.277329,0.16881 0.723468,0.289388 0.446139,0.10852 0.747585,0.120578 z M 22.8447,19.927565 20.25227,13.295768 17.708071,19.927565 Z"
         id="path1857" />
      <path
         d="m 46.960325,19.071461 q 0.542602,0.60289 0.795816,1.326359 0.265272,0.711411 0.265272,1.663978 0,2.266869 -1.676036,3.737922 -1.676036,1.471053 -4.159945,1.471053 -1.145493,0 -2.290985,-0.349676 -1.145492,-0.361735 -1.977481,-0.868163 l -0.518486,0.880221 h -0.964625 l -0.16881,-5.860097 h 0.976683 q 0.301446,1.085203 0.699353,1.965423 0.409966,0.868163 1.073146,1.627805 0.627006,0.711411 1.458995,1.133434 0.844047,0.422024 1.953366,0.422024 0.831989,0 1.446937,-0.217041 0.627007,-0.217041 1.012857,-0.614948 0.38585,-0.397908 0.566717,-0.928452 0.192925,-0.542602 0.192925,-1.241955 0,-1.024914 -0.578775,-1.905134 -0.578775,-0.892278 -1.724267,-1.350475 -0.783758,-0.313503 -1.796615,-0.687296 -1.012856,-0.38585 -1.748382,-0.723468 -1.446938,-0.651122 -2.254811,-1.700152 -0.795816,-1.061087 -0.795816,-2.761239 0,-0.976683 0.397908,-1.82073 0.397908,-0.844047 1.133434,-1.507226 0.699353,-0.627007 1.651921,-0.9766833 0.952567,-0.3617344 1.989539,-0.3617344 1.181665,0 2.110117,0.3617344 0.940509,0.3617343 1.712209,0.8440473 l 0.494371,-0.8199317 h 0.964625 l 0.09646,5.6792297 h -0.976683 q -0.265272,-0.976683 -0.60289,-1.868961 -0.325561,-0.892278 -0.856105,-1.615747 -0.518486,-0.699353 -1.26607,-1.109319 -0.747585,-0.422023 -1.832788,-0.422023 -1.145492,0 -1.953366,0.735527 -0.807873,0.735526 -0.807873,1.796614 0,1.109319 0.518486,1.844845 0.518486,0.723469 1.507227,1.193724 0.88022,0.422023 1.724267,0.735526 0.856104,0.301445 1.65192,0.651122 0.723469,0.313503 1.386649,0.711411 0.675237,0.397908 1.169607,0.928452 z"
         id="path1859" />
    </g>
    <g
       aria-label="Architect Studio"
       id="text406"
       style="font-size:7.05556px;font-family:Calibri;-inkscape-font-specification:'Calibri, Normal';text-align:center;text-anchor:middle;fill:#c39b7c;stroke-width:0.2;stroke-linecap:round;stroke-miterlimit:0;paint-order:markers fill stroke">
      <path
         d="m 11.169246,34.409871 q 0.02756,0.07579 0.02756,0.124023 0.0034,0.04479 -0.02412,0.0689 -0.02756,0.02412 -0.09302,0.03101 -0.06201,0.0069 -0.16881,0.0069 -0.106798,0 -0.172255,-0.0069 -0.06201,-0.0034 -0.09646,-0.01378 -0.03101,-0.01378 -0.04823,-0.03445 -0.01378,-0.02067 -0.02756,-0.05168 L 10.183948,33.448689 H 8.3304851 l -0.3651803,1.071425 q -0.010335,0.03101 -0.027561,0.05512 -0.017226,0.02067 -0.051677,0.0379 -0.031006,0.01378 -0.093018,0.02067 -0.058567,0.0069 -0.1550294,0.0069 -0.099908,0 -0.1653647,-0.01034 -0.062012,-0.0069 -0.089573,-0.03101 -0.024116,-0.02412 -0.024116,-0.0689 0.00345,-0.04823 0.031006,-0.124023 l 1.4951724,-4.141008 q 0.01378,-0.0379 0.034451,-0.06201 0.024116,-0.02412 0.065457,-0.0379 0.044786,-0.01378 0.1102431,-0.01722 0.068902,-0.0069 0.1722549,-0.0069 0.1102431,0 0.1825902,0.0069 0.072347,0.0034 0.1171333,0.01722 0.044786,0.01378 0.068902,0.04134 0.024116,0.02411 0.037896,0.06201 z M 9.2503262,30.754622 h -0.00345 L 8.4786243,32.97671 h 1.5502937 z"
         id="path1862" />
      <path
         d="m 13.660051,31.636567 q 0,0.07579 -0.0034,0.127469 -0.0034,0.05168 -0.01378,0.08268 -0.01033,0.02756 -0.02756,0.04479 -0.01378,0.01378 -0.04134,0.01378 -0.02756,0 -0.0689,-0.01378 -0.0379,-0.01722 -0.08957,-0.03101 -0.04823,-0.01723 -0.110243,-0.03101 -0.06201,-0.01378 -0.134359,-0.01378 -0.08613,0 -0.168809,0.03445 -0.08268,0.03445 -0.1757,0.113688 -0.08957,0.07924 -0.189481,0.210151 -0.09991,0.130914 -0.220486,0.320395 v 2.039497 q 0,0.02756 -0.01378,0.04823 -0.01378,0.01722 -0.04479,0.03101 -0.03101,0.01378 -0.08613,0.02067 -0.05512,0.0069 -0.141249,0.0069 -0.08268,0 -0.137804,-0.0069 -0.05512,-0.0069 -0.08957,-0.02067 -0.03101,-0.01378 -0.04479,-0.03101 -0.01033,-0.02067 -0.01033,-0.04823 v -3.100588 q 0,-0.02756 0.01033,-0.04479 0.01034,-0.02067 0.04134,-0.03445 0.03101,-0.01722 0.07924,-0.02067 0.04823,-0.0069 0.127468,-0.0069 0.07579,0 0.124024,0.0069 0.05168,0.0034 0.07924,0.02067 0.02756,0.01378 0.0379,0.03445 0.01378,0.01723 0.01378,0.04479 v 0.451308 q 0.127468,-0.186035 0.237711,-0.303168 0.113688,-0.117134 0.213596,-0.182591 0.09991,-0.0689 0.196371,-0.09302 0.09991,-0.02756 0.199816,-0.02756 0.04479,0 0.09991,0.0069 0.05857,0.0034 0.120579,0.01723 0.06201,0.01378 0.110243,0.03101 0.05168,0.01722 0.07235,0.03445 0.02067,0.01722 0.02756,0.03445 0.0069,0.01378 0.01033,0.0379 0.0069,0.02411 0.0069,0.07235 0.0034,0.04479 0.0034,0.124023 z"
         id="path1864" />
      <path
         d="m 16.433355,34.061916 q 0,0.05857 -0.0034,0.103353 -0.0034,0.04134 -0.01378,0.07235 -0.0069,0.02756 -0.02067,0.05168 -0.01033,0.02067 -0.05512,0.06546 -0.04134,0.04134 -0.144694,0.106798 -0.103353,0.06201 -0.234266,0.113689 -0.127469,0.04823 -0.279053,0.07924 -0.151585,0.03101 -0.313504,0.03101 -0.334175,0 -0.592557,-0.110243 -0.258382,-0.110244 -0.434082,-0.320395 -0.172255,-0.213596 -0.265273,-0.520209 -0.08957,-0.310059 -0.08957,-0.713136 0,-0.458198 0.110243,-0.785482 0.113688,-0.330729 0.306613,-0.54088 0.196371,-0.210151 0.458198,-0.310059 0.265273,-0.103353 0.571887,-0.103353 0.148139,0 0.285943,0.02756 0.141249,0.02756 0.258382,0.07235 0.117133,0.04479 0.206706,0.103353 0.09302,0.05857 0.134359,0.09991 0.04134,0.04134 0.05512,0.06546 0.01723,0.02411 0.02756,0.05857 0.01033,0.03101 0.01378,0.07235 0.0034,0.04134 0.0034,0.103353 0,0.134359 -0.03101,0.189481 -0.03101,0.05168 -0.07579,0.05168 -0.05168,0 -0.120578,-0.05512 -0.06546,-0.05857 -0.16881,-0.127469 -0.103353,-0.0689 -0.251492,-0.124024 -0.144694,-0.05857 -0.34451,-0.05857 -0.409966,0 -0.630452,0.316949 -0.217042,0.313504 -0.217042,0.912951 0,0.299723 0.05512,0.5271 0.05857,0.223931 0.16881,0.375515 0.110243,0.151585 0.268717,0.227377 0.16192,0.07235 0.368626,0.07235 0.19637,0 0.34451,-0.06201 0.148139,-0.06201 0.254937,-0.134359 0.110243,-0.07579 0.18259,-0.134359 0.07579,-0.06201 0.117133,-0.06201 0.02412,0 0.04134,0.01378 0.01723,0.01378 0.02756,0.04823 0.01378,0.03101 0.01723,0.08268 0.0069,0.04823 0.0069,0.117133 z"
         id="path1866" />
      <path
         d="m 19.857782,34.533894 q 0,0.02756 -0.01378,0.04823 -0.01378,0.01722 -0.04479,0.03101 -0.03101,0.01378 -0.08613,0.02067 -0.05512,0.0069 -0.137804,0.0069 -0.08613,0 -0.141249,-0.0069 -0.05512,-0.0069 -0.08613,-0.02067 -0.03101,-0.01378 -0.04479,-0.03101 -0.01378,-0.02067 -0.01378,-0.04823 v -1.815566 q 0,-0.265273 -0.04134,-0.427192 -0.04134,-0.16192 -0.120579,-0.279053 -0.07924,-0.117133 -0.206705,-0.179145 -0.124024,-0.06201 -0.289389,-0.06201 -0.213596,0 -0.427192,0.151584 -0.213596,0.151585 -0.447862,0.444418 v 2.166966 q 0,0.02756 -0.01378,0.04823 -0.01378,0.01722 -0.04479,0.03101 -0.03101,0.01378 -0.08613,0.02067 -0.05512,0.0069 -0.141249,0.0069 -0.08268,0 -0.137803,-0.0069 -0.05512,-0.0069 -0.08957,-0.02067 -0.03101,-0.01378 -0.04479,-0.03101 -0.01034,-0.02067 -0.01034,-0.04823 v -4.60265 q 0,-0.02756 0.01034,-0.04823 0.01378,-0.02067 0.04479,-0.03445 0.03445,-0.01378 0.08957,-0.02067 0.05512,-0.0069 0.137803,-0.0069 0.08613,0 0.141249,0.0069 0.05512,0.0069 0.08613,0.02067 0.03101,0.01378 0.04479,0.03445 0.01378,0.02067 0.01378,0.04823 v 1.856908 q 0.244601,-0.258383 0.492648,-0.382406 0.248048,-0.127469 0.49954,-0.127469 0.310058,0 0.520209,0.106798 0.213596,0.103353 0.34451,0.279053 0.130914,0.1757 0.186035,0.413412 0.05857,0.234266 0.05857,0.568441 z"
         id="path1868" />
      <path
         d="m 21.463198,34.533894 q 0,0.02756 -0.01378,0.04823 -0.01378,0.01722 -0.04479,0.03101 -0.03101,0.01378 -0.08613,0.02067 -0.05512,0.0069 -0.141249,0.0069 -0.08268,0 -0.137804,-0.0069 -0.05512,-0.0069 -0.08957,-0.02067 -0.03101,-0.01378 -0.04479,-0.03101 -0.01034,-0.02067 -0.01034,-0.04823 v -3.100588 q 0,-0.02412 0.01034,-0.04479 0.01378,-0.02067 0.04479,-0.03445 0.03445,-0.01378 0.08957,-0.02067 0.05512,-0.0069 0.137804,-0.0069 0.08613,0 0.141249,0.0069 0.05512,0.0069 0.08613,0.02067 0.03101,0.01378 0.04479,0.03445 0.01378,0.02067 0.01378,0.04479 z m 0.06546,-4.147897 q 0,0.199815 -0.07579,0.272162 -0.07579,0.07235 -0.279053,0.07235 -0.199816,0 -0.275608,-0.0689 -0.07235,-0.07235 -0.07235,-0.268718 0,-0.199816 0.07579,-0.272163 0.07579,-0.07235 0.279053,-0.07235 0.199816,0 0.272163,0.07235 0.07579,0.0689 0.07579,0.265273 z"
         id="path1870" />
      <path
         d="m 24.126258,34.306518 q 0,0.09991 -0.01378,0.158474 -0.01378,0.05857 -0.04134,0.08613 -0.02756,0.02756 -0.08268,0.05168 -0.05512,0.02412 -0.127469,0.0379 -0.0689,0.01723 -0.148139,0.02756 -0.07924,0.01033 -0.158475,0.01033 -0.241157,0 -0.413411,-0.06201 -0.172255,-0.06546 -0.282498,-0.192926 -0.110244,-0.130913 -0.16192,-0.327284 -0.04823,-0.199816 -0.04823,-0.468533 v -1.812122 h -0.434083 q -0.05168,0 -0.08268,-0.05512 -0.03101,-0.05512 -0.03101,-0.179145 0,-0.06546 0.0069,-0.110243 0.01034,-0.04479 0.02412,-0.07235 0.01378,-0.03101 0.03445,-0.04134 0.02412,-0.01378 0.05168,-0.01378 h 0.430638 v -0.737251 q 0,-0.02412 0.01033,-0.04479 0.01378,-0.02067 0.04479,-0.03445 0.03445,-0.01723 0.08957,-0.02412 0.05512,-0.0069 0.137804,-0.0069 0.08613,0 0.141249,0.0069 0.05512,0.0069 0.08613,0.02412 0.03101,0.01378 0.04479,0.03445 0.01378,0.02067 0.01378,0.04479 v 0.737251 h 0.795817 q 0.02756,0 0.04823,0.01378 0.02067,0.01034 0.03445,0.04134 0.01722,0.02756 0.02412,0.07235 0.0069,0.04479 0.0069,0.110243 0,0.124023 -0.03101,0.179145 -0.03101,0.05512 -0.08268,0.05512 h -0.795817 v 1.729439 q 0,0.320394 0.09302,0.485759 0.09646,0.16192 0.341065,0.16192 0.07924,0 0.141249,-0.01378 0.06201,-0.01722 0.110243,-0.03445 0.04823,-0.01723 0.08268,-0.03101 0.03445,-0.01722 0.06201,-0.01722 0.01723,0 0.03101,0.01033 0.01723,0.0069 0.02412,0.03101 0.01033,0.02412 0.01722,0.06546 0.0069,0.04134 0.0069,0.103353 z"
         id="path1872" />
      <path
         d="m 27.447333,32.849242 q 0,0.134358 -0.0689,0.192925 -0.06546,0.05512 -0.151584,0.05512 h -2.032608 q 0,0.258382 0.05168,0.465088 0.05168,0.206706 0.172254,0.354845 0.120579,0.148139 0.313504,0.227376 0.192926,0.07924 0.471979,0.07924 0.220486,0 0.392741,-0.03445 0.172255,-0.0379 0.296278,-0.08268 0.127469,-0.04479 0.206706,-0.07924 0.08268,-0.0379 0.124024,-0.0379 0.02411,0 0.04134,0.01378 0.02067,0.01034 0.03101,0.03445 0.01033,0.02412 0.01378,0.0689 0.0069,0.04134 0.0069,0.103353 0,0.04479 -0.0034,0.07924 -0.0034,0.03101 -0.01034,0.05857 -0.0034,0.02412 -0.01723,0.04479 -0.01033,0.02067 -0.031,0.04134 -0.01723,0.01722 -0.110244,0.06201 -0.09302,0.04134 -0.241156,0.08268 -0.14814,0.04134 -0.34451,0.07235 -0.192926,0.03445 -0.413412,0.03445 -0.382406,0 -0.671794,-0.106798 -0.285943,-0.106798 -0.482314,-0.316949 -0.19637,-0.210151 -0.296278,-0.5271 -0.09991,-0.316949 -0.09991,-0.737251 0,-0.399632 0.103353,-0.716581 0.103353,-0.320394 0.296278,-0.54088 0.196371,-0.223931 0.471979,-0.341065 0.275608,-0.120578 0.616672,-0.120578 0.365181,0 0.620118,0.117133 0.258382,0.117134 0.423747,0.316949 0.165365,0.196371 0.241157,0.465089 0.07924,0.265272 0.07924,0.568441 z m -0.571886,-0.16881 q 0.01033,-0.447863 -0.199816,-0.7028 -0.206706,-0.254937 -0.616672,-0.254937 -0.210151,0 -0.368626,0.07924 -0.158474,0.07924 -0.265272,0.210151 -0.106798,0.130914 -0.165365,0.306614 -0.05857,0.172254 -0.06546,0.361735 z"
         id="path1874" />
      <path
         d="m 30.54103,34.061916 q 0,0.05857 -0.0034,0.103353 -0.0034,0.04134 -0.01378,0.07235 -0.0069,0.02756 -0.02067,0.05168 -0.01033,0.02067 -0.05512,0.06546 -0.04134,0.04134 -0.144694,0.106798 -0.103353,0.06201 -0.234267,0.113689 -0.127468,0.04823 -0.279053,0.07924 -0.151584,0.03101 -0.313504,0.03101 -0.334174,0 -0.592556,-0.110243 -0.258383,-0.110244 -0.434083,-0.320395 -0.172255,-0.213596 -0.265272,-0.520209 -0.08957,-0.310059 -0.08957,-0.713136 0,-0.458198 0.110243,-0.785482 0.113688,-0.330729 0.306614,-0.54088 0.196371,-0.210151 0.458198,-0.310059 0.265272,-0.103353 0.571886,-0.103353 0.148139,0 0.285943,0.02756 0.141249,0.02756 0.258383,0.07235 0.117133,0.04479 0.206705,0.103353 0.09302,0.05857 0.134359,0.09991 0.04134,0.04134 0.05512,0.06546 0.01722,0.02411 0.02756,0.05857 0.01033,0.03101 0.01378,0.07235 0.0034,0.04134 0.0034,0.103353 0,0.134359 -0.03101,0.189481 -0.03101,0.05168 -0.07579,0.05168 -0.05168,0 -0.120578,-0.05512 -0.06546,-0.05857 -0.16881,-0.127469 -0.103353,-0.0689 -0.251492,-0.124024 -0.144694,-0.05857 -0.34451,-0.05857 -0.409967,0 -0.630453,0.316949 -0.217041,0.313504 -0.217041,0.912951 0,0.299723 0.05512,0.5271 0.05857,0.223931 0.168809,0.375515 0.110243,0.151585 0.268718,0.227377 0.16192,0.07235 0.368625,0.07235 0.196371,0 0.34451,-0.06201 0.148139,-0.06201 0.254937,-0.134359 0.110244,-0.07579 0.182591,-0.134359 0.07579,-0.06201 0.117133,-0.06201 0.02412,0 0.04134,0.01378 0.01723,0.01378 0.02756,0.04823 0.01378,0.03101 0.01722,0.08268 0.0069,0.04823 0.0069,0.117133 z"
         id="path1876" />
      <path
         d="m 32.907813,34.306518 q 0,0.09991 -0.01378,0.158474 -0.01378,0.05857 -0.04134,0.08613 -0.02756,0.02756 -0.08268,0.05168 -0.05512,0.02412 -0.127469,0.0379 -0.0689,0.01723 -0.148139,0.02756 -0.07924,0.01033 -0.158475,0.01033 -0.241156,0 -0.413411,-0.06201 -0.172255,-0.06546 -0.282498,-0.192926 -0.110243,-0.130913 -0.16192,-0.327284 -0.04823,-0.199816 -0.04823,-0.468533 v -1.812122 h -0.434083 q -0.05168,0 -0.08268,-0.05512 -0.03101,-0.05512 -0.03101,-0.179145 0,-0.06546 0.0069,-0.110243 0.01034,-0.04479 0.02412,-0.07235 0.01378,-0.03101 0.03445,-0.04134 0.02412,-0.01378 0.05168,-0.01378 h 0.430637 v -0.737251 q 0,-0.02412 0.01033,-0.04479 0.01378,-0.02067 0.04479,-0.03445 0.03445,-0.01723 0.08957,-0.02412 0.05512,-0.0069 0.137804,-0.0069 0.08613,0 0.141249,0.0069 0.05512,0.0069 0.08613,0.02412 0.03101,0.01378 0.04479,0.03445 0.01378,0.02067 0.01378,0.04479 v 0.737251 h 0.795817 q 0.02756,0 0.04823,0.01378 0.02067,0.01034 0.03445,0.04134 0.01723,0.02756 0.02412,0.07235 0.0069,0.04479 0.0069,0.110243 0,0.124023 -0.03101,0.179145 -0.03101,0.05512 -0.08268,0.05512 h -0.795817 v 1.729439 q 0,0.320394 0.09302,0.485759 0.09646,0.16192 0.341064,0.16192 0.07924,0 0.141249,-0.01378 0.06201,-0.01722 0.110243,-0.03445 0.04823,-0.01723 0.08268,-0.03101 0.03445,-0.01722 0.06201,-0.01722 0.01723,0 0.03101,0.01033 0.01723,0.0069 0.02412,0.03101 0.01034,0.02412 0.01723,0.06546 0.0069,0.04134 0.0069,0.103353 z"
         id="path1878" />
      <path
         d="m 37.713725,33.369451 q 0,0.313504 -0.117134,0.558106 -0.113688,0.244602 -0.320394,0.416857 -0.203261,0.16881 -0.482313,0.254937 -0.275608,0.08613 -0.596002,0.08613 -0.223932,0 -0.416857,-0.0379 -0.189481,-0.0379 -0.341065,-0.09302 -0.148139,-0.05512 -0.251492,-0.113688 -0.09991,-0.05857 -0.141249,-0.09991 -0.0379,-0.04134 -0.05857,-0.103353 -0.01723,-0.06546 -0.01723,-0.172255 0,-0.07579 0.0069,-0.124023 0.0069,-0.05168 0.02067,-0.08268 0.01378,-0.03101 0.03445,-0.04134 0.02067,-0.01378 0.04823,-0.01378 0.04823,0 0.134359,0.05857 0.08957,0.05857 0.227376,0.127469 0.137804,0.0689 0.33073,0.130914 0.19637,0.05857 0.451307,0.05857 0.192926,0 0.3514,-0.05168 0.16192,-0.05168 0.275608,-0.144694 0.117134,-0.09646 0.179145,-0.234267 0.06201,-0.137804 0.06201,-0.313504 0,-0.18948 -0.08613,-0.323839 -0.08613,-0.134359 -0.227377,-0.234267 -0.141249,-0.103353 -0.323839,-0.186035 -0.179145,-0.08613 -0.368626,-0.172255 -0.18948,-0.08957 -0.368625,-0.19637 -0.179145,-0.106798 -0.320394,-0.251492 -0.141249,-0.144695 -0.230822,-0.33762 -0.08613,-0.196371 -0.08613,-0.468533 0,-0.279053 0.09991,-0.496094 0.103353,-0.220487 0.282498,-0.368626 0.18259,-0.148139 0.430637,-0.223931 0.251492,-0.07924 0.54088,-0.07924 0.14814,0 0.296279,0.02756 0.151584,0.02412 0.282498,0.0689 0.134359,0.04134 0.237712,0.09646 0.103352,0.05168 0.134358,0.08613 0.03445,0.03101 0.04479,0.05168 0.01033,0.01722 0.01723,0.04823 0.0069,0.02756 0.01033,0.0689 0.0034,0.04134 0.0034,0.106798 0,0.06201 -0.0069,0.110243 -0.0034,0.04823 -0.01378,0.08268 -0.01033,0.03101 -0.03101,0.04823 -0.01722,0.01378 -0.04134,0.01378 -0.0379,0 -0.120579,-0.04823 -0.07924,-0.04823 -0.19637,-0.106798 -0.117133,-0.06201 -0.279053,-0.110243 -0.158475,-0.05168 -0.35829,-0.05168 -0.186036,0 -0.323839,0.05168 -0.137804,0.04823 -0.227377,0.130914 -0.08957,0.08268 -0.134359,0.19637 -0.04479,0.113688 -0.04479,0.241157 0,0.186035 0.08613,0.320394 0.08613,0.134359 0.227376,0.237712 0.144694,0.103353 0.327284,0.18948 0.18259,0.08613 0.372071,0.1757 0.18948,0.08613 0.37207,0.192926 0.182591,0.103353 0.32384,0.248047 0.144694,0.141249 0.230821,0.337619 0.08957,0.192926 0.08957,0.458198 z"
         id="path1880" />
      <path
         d="m 40.108067,34.306518 q 0,0.09991 -0.01378,0.158474 -0.01378,0.05857 -0.04134,0.08613 -0.02756,0.02756 -0.08268,0.05168 -0.05512,0.02412 -0.127468,0.0379 -0.0689,0.01723 -0.14814,0.02756 -0.07924,0.01033 -0.158474,0.01033 -0.241157,0 -0.413412,-0.06201 -0.172255,-0.06546 -0.282498,-0.192926 -0.110243,-0.130913 -0.161919,-0.327284 -0.04823,-0.199816 -0.04823,-0.468533 v -1.812122 h -0.434082 q -0.05168,0 -0.08268,-0.05512 -0.03101,-0.05512 -0.03101,-0.179145 0,-0.06546 0.0069,-0.110243 0.01034,-0.04479 0.02412,-0.07235 0.01378,-0.03101 0.03445,-0.04134 0.02412,-0.01378 0.05168,-0.01378 h 0.430637 v -0.737251 q 0,-0.02412 0.01034,-0.04479 0.01378,-0.02067 0.04479,-0.03445 0.03445,-0.01723 0.08957,-0.02412 0.05512,-0.0069 0.137804,-0.0069 0.08613,0 0.141249,0.0069 0.05512,0.0069 0.08613,0.02412 0.03101,0.01378 0.04479,0.03445 0.01378,0.02067 0.01378,0.04479 v 0.737251 h 0.795818 q 0.02756,0 0.04823,0.01378 0.02067,0.01034 0.03445,0.04134 0.01723,0.02756 0.02412,0.07235 0.0069,0.04479 0.0069,0.110243 0,0.124023 -0.03101,0.179145 -0.03101,0.05512 -0.08268,0.05512 h -0.795818 v 1.729439 q 0,0.320394 0.09302,0.485759 0.09646,0.16192 0.341065,0.16192 0.07924,0 0.141249,-0.01378 0.06201,-0.01722 0.110243,-0.03445 0.04823,-0.01723 0.08268,-0.03101 0.03445,-0.01722 0.06201,-0.01722 0.01723,0 0.03101,0.01033 0.01723,0.0069 0.02412,0.03101 0.01034,0.02412 0.01723,0.06546 0.0069,0.04134 0.0069,0.103353 z"
         id="path1882" />
      <path
         d="m 43.515268,34.533894 q 0,0.02756 -0.01378,0.04823 -0.01034,0.01722 -0.04134,0.03101 -0.03101,0.01378 -0.08268,0.02067 -0.04823,0.0069 -0.120578,0.0069 -0.07924,0 -0.130914,-0.0069 -0.04823,-0.0069 -0.07924,-0.02067 -0.02756,-0.01378 -0.0379,-0.03101 -0.01034,-0.02067 -0.01034,-0.04823 v -0.409966 q -0.265273,0.292833 -0.523655,0.427192 -0.258383,0.134359 -0.523655,0.134359 -0.310059,0 -0.523655,-0.103353 -0.210151,-0.103353 -0.341065,-0.279053 -0.130913,-0.179145 -0.18948,-0.413412 -0.05512,-0.237712 -0.05512,-0.575331 v -1.881024 q 0,-0.02756 0.01034,-0.04479 0.01378,-0.02067 0.04823,-0.03445 0.03445,-0.01722 0.08957,-0.02067 0.05512,-0.0069 0.137804,-0.0069 0.08268,0 0.137803,0.0069 0.05512,0.0034 0.08613,0.02067 0.03445,0.01378 0.04823,0.03445 0.01378,0.01723 0.01378,0.04479 v 1.805232 q 0,0.272162 0.0379,0.437527 0.04134,0.16192 0.120578,0.279053 0.08268,0.113688 0.206706,0.179145 0.124024,0.06201 0.289388,0.06201 0.213596,0 0.423747,-0.151584 0.213596,-0.151585 0.451308,-0.444418 v -2.166967 q 0,-0.02756 0.01033,-0.04479 0.01378,-0.02067 0.04823,-0.03445 0.03445,-0.01722 0.08613,-0.02067 0.05512,-0.0069 0.141249,-0.0069 0.08268,0 0.137804,0.0069 0.05512,0.0034 0.08613,0.02067 0.03101,0.01378 0.04479,0.03445 0.01722,0.01723 0.01722,0.04479 z"
         id="path1884" />
      <path
         d="m 47.222193,34.533894 q 0,0.02756 -0.01378,0.04823 -0.01034,0.02067 -0.04134,0.03445 -0.02756,0.01033 -0.07579,0.01723 -0.04823,0.0069 -0.117133,0.0069 -0.07235,0 -0.120579,-0.0069 -0.04823,-0.0069 -0.07924,-0.01723 -0.03101,-0.01378 -0.04479,-0.03445 -0.01378,-0.02067 -0.01378,-0.04823 v -0.409966 q -0.244602,0.265272 -0.509874,0.413411 -0.261828,0.14814 -0.575331,0.14814 -0.341065,0 -0.582222,-0.130914 -0.241157,-0.134359 -0.392741,-0.35829 -0.148139,-0.227377 -0.217041,-0.530545 -0.0689,-0.306614 -0.0689,-0.644234 0,-0.399631 0.08613,-0.720025 0.08613,-0.323839 0.254938,-0.551216 0.168809,-0.227376 0.416856,-0.347954 0.251492,-0.124024 0.578777,-0.124024 0.272162,0 0.496094,0.120578 0.227376,0.117134 0.447863,0.347955 v -1.801786 q 0,-0.02411 0.01034,-0.04479 0.01378,-0.02412 0.04823,-0.03445 0.03445,-0.01378 0.08613,-0.02067 0.05512,-0.01034 0.137804,-0.01034 0.08613,0 0.141249,0.01034 0.05512,0.0069 0.08613,0.02067 0.03101,0.01033 0.04479,0.03445 0.01723,0.02067 0.01723,0.04479 z m -0.571886,-2.180746 q -0.230822,-0.285944 -0.447863,-0.434083 -0.213596,-0.151584 -0.447863,-0.151584 -0.217041,0 -0.368625,0.103353 -0.151585,0.103353 -0.248047,0.272163 -0.09302,0.168809 -0.137804,0.382405 -0.04134,0.213596 -0.04134,0.434083 0,0.234266 0.03445,0.458198 0.0379,0.223931 0.127468,0.399631 0.08957,0.172255 0.237712,0.279053 0.148139,0.103353 0.37207,0.103353 0.113689,0 0.217042,-0.03101 0.106798,-0.03101 0.217041,-0.103353 0.110243,-0.07235 0.230821,-0.186035 0.120579,-0.117134 0.254938,-0.285943 z"
         id="path1886" />
      <path
         d="m 48.841388,34.533894 q 0,0.02756 -0.01378,0.04823 -0.01378,0.01722 -0.04479,0.03101 -0.03101,0.01378 -0.08613,0.02067 -0.05512,0.0069 -0.141249,0.0069 -0.08268,0 -0.137804,-0.0069 -0.05512,-0.0069 -0.08957,-0.02067 -0.03101,-0.01378 -0.04479,-0.03101 -0.01033,-0.02067 -0.01033,-0.04823 v -3.100588 q 0,-0.02412 0.01033,-0.04479 0.01378,-0.02067 0.04479,-0.03445 0.03445,-0.01378 0.08957,-0.02067 0.05512,-0.0069 0.137804,-0.0069 0.08613,0 0.141249,0.0069 0.05512,0.0069 0.08613,0.02067 0.03101,0.01378 0.04479,0.03445 0.01378,0.02067 0.01378,0.04479 z m 0.06546,-4.147897 q 0,0.199815 -0.07579,0.272162 -0.07579,0.07235 -0.279053,0.07235 -0.199816,0 -0.275608,-0.0689 -0.07235,-0.07235 -0.07235,-0.268718 0,-0.199816 0.07579,-0.272163 0.07579,-0.07235 0.279053,-0.07235 0.199816,0 0.272163,0.07235 0.07579,0.0689 0.07579,0.265273 z"
         id="path1888" />
      <path
         d="m 52.775691,32.949149 q 0,0.378961 -0.09991,0.699355 -0.09991,0.316949 -0.299724,0.547771 -0.19637,0.230821 -0.496094,0.361735 -0.296278,0.127469 -0.689019,0.127469 -0.382406,0 -0.668349,-0.113689 -0.282498,-0.113688 -0.471979,-0.330729 -0.18948,-0.217041 -0.282498,-0.5271 -0.09302,-0.310059 -0.09302,-0.7028 0,-0.378961 0.09646,-0.69591 0.09991,-0.320394 0.296279,-0.551215 0.199815,-0.230822 0.496094,-0.35829 0.296278,-0.127469 0.692464,-0.127469 0.382406,0 0.664904,0.113688 0.285943,0.113688 0.475424,0.33073 0.18948,0.217041 0.282498,0.5271 0.09646,0.310058 0.09646,0.699354 z m -0.599447,0.0379 q 0,-0.251493 -0.04823,-0.475424 -0.04479,-0.223931 -0.151584,-0.392741 -0.106798,-0.16881 -0.289388,-0.265273 -0.182591,-0.09991 -0.454753,-0.09991 -0.251492,0 -0.434083,0.08957 -0.179145,0.08957 -0.296278,0.254937 -0.117133,0.16192 -0.1757,0.385851 -0.05512,0.223932 -0.05512,0.489204 0,0.254937 0.04479,0.478869 0.04823,0.223931 0.155029,0.392741 0.110243,0.165365 0.292833,0.265272 0.182591,0.09646 0.454753,0.09646 0.248047,0 0.430638,-0.08957 0.18259,-0.08957 0.299723,-0.251493 0.117133,-0.161919 0.172255,-0.385851 0.05512,-0.223931 0.05512,-0.492648 z"
         id="path1890" />
    </g>
    <path
       style="fill:#c39b7c;stroke:#c39b7c;stroke-width:0.564655;stroke-linecap:round;stroke-miterlimit:0;stroke-dasharray:none;stroke-opacity:1;paint-order:markers fill stroke"
       d="m 7.5083148,28.545889 c 15.0393482,0 30.0786902,0 45.1180202,0"
       id="path1129" />
  </g>
</svg>
