<svg version="1.1" xmlns="http://www.w3.org/2000/svg" xmlns:xlink="http://www.w3.org/1999/xlink" x="0px" y="0px"
	 viewBox="0 0 100 100" style="enable-background:new 0 0 100 100;" xml:space="preserve">
<g id="Vrstva_234">
	<g>
		<g>
			<g>
				<path style="fill:#c39b7c;" d="M61.886,31.25c-0.829,0-1.5-0.672-1.5-1.5c0-5.79-4.71-10.5-10.5-10.5
					c-5.79,0-10.5,4.71-10.5,10.5c0,0.828-0.671,1.5-1.5,1.5c-0.829,0-1.5-0.672-1.5-1.5c0-7.444,6.056-13.5,13.5-13.5
					c7.444,0,13.5,6.056,13.5,13.5C63.386,30.578,62.714,31.25,61.886,31.25z"/>
			</g>
			<g>
				<path style="fill:#c39b7c;" d="M17.884,91.25c-0.238,0-0.479-0.057-0.705-0.177c-0.731-0.39-1.007-1.298-0.618-2.029l32-60
					c0.389-0.73,1.296-1.01,2.03-0.617c0.731,0.39,1.007,1.298,0.618,2.029l-32,60C18.939,90.962,18.42,91.25,17.884,91.25z"/>
			</g>
			<g>
				<path style="fill:#c39b7c;" d="M81.887,91.25c-0.537,0-1.055-0.288-1.325-0.794l-32-60c-0.39-0.732-0.113-1.64,0.618-2.029
					c0.733-0.393,1.639-0.113,2.03,0.617l32,60c0.39,0.731,0.113,1.64-0.618,2.029C82.367,91.193,82.125,91.25,81.887,91.25z"/>
			</g>
			<g>
				<path style="fill:#c39b7c;" d="M50.011,68.968c-8.85,0-18.375-2.17-18.375-6.936c0-0.828,0.671-1.5,1.5-1.5
					c0.829,0,1.5,0.672,1.5,1.5c0,1.177,5.231,3.936,15.375,3.936s15.375-2.759,15.375-3.936c0-0.828,0.671-1.5,1.5-1.5
					c0.829,0,1.5,0.672,1.5,1.5C68.386,66.798,58.861,68.968,50.011,68.968z"/>
			</g>
			<g>
				<path style="fill:#c39b7c;" d="M49.886,18.75c-0.829,0-1.5-0.672-1.5-1.5v-7c0-0.828,0.671-1.5,1.5-1.5
					c0.829,0,1.5,0.672,1.5,1.5v7C51.386,18.078,50.714,18.75,49.886,18.75z"/>
			</g>
			<g>
				<path style="fill:#c39b7c;" d="M49.886,73.75c-0.829,0-1.5-0.672-1.5-1.5v-9c0-0.828,0.671-1.5,1.5-1.5
					c0.829,0,1.5,0.672,1.5,1.5v9C51.386,73.078,50.714,73.75,49.886,73.75z"/>
			</g>
		</g>
		<g>
			<path style="fill:#c39b7c;" d="M23.528,87.94c-0.228,0-0.458-0.052-0.675-0.161l-6.058-3.058
				c-0.74-0.373-1.037-1.275-0.663-2.015c0.373-0.739,1.277-1.034,2.015-0.663l6.058,3.058c0.74,0.373,1.037,1.275,0.663,2.015
				C24.604,87.638,24.076,87.94,23.528,87.94z"/>
		</g>
		<g>
			<path style="fill:#c39b7c;" d="M76.472,87.939c-0.548,0-1.076-0.302-1.34-0.824c-0.374-0.739-0.077-1.642,0.663-2.015
				l6.058-3.058c0.739-0.373,1.641-0.076,2.015,0.663c0.374,0.739,0.077,1.642-0.663,2.015l-6.058,3.058
				C76.93,87.887,76.7,87.939,76.472,87.939z"/>
		</g>
	</g>
</g>
</svg>
