<svg version="1.1" xmlns="http://www.w3.org/2000/svg" xmlns:xlink="http://www.w3.org/1999/xlink" x="0px" y="0px"
	 viewBox="0 0 100 100" style="enable-background:new 0 0 100 100;" xml:space="preserve">
<g id="Vrstva_33">
	<g>
		<g>
			<path style="fill:#c39b7c;"  d="M81.5,79.444h-9c-0.829,0-1.5-0.671-1.5-1.5v-36.5c0-0.829,0.671-1.5,1.5-1.5c0.829,0,1.5,0.671,1.5,1.5v35h6v-35
				c0-0.829,0.671-1.5,1.5-1.5c0.829,0,1.5,0.671,1.5,1.5v36.5C83,78.773,82.329,79.444,81.5,79.444z"/>
		</g>
		<g>
			<path style="fill:#c39b7c;"  d="M63.5,79.444h-9c-0.829,0-1.5-0.671-1.5-1.5v-36.5c0-0.829,0.671-1.5,1.5-1.5c0.829,0,1.5,0.671,1.5,1.5v35h6v-35
				c0-0.829,0.671-1.5,1.5-1.5c0.829,0,1.5,0.671,1.5,1.5v36.5C65,78.773,64.329,79.444,63.5,79.444z"/>
		</g>
		<g>
			<path style="fill:#c39b7c;"  d="M45.5,79.444h-9c-0.829,0-1.5-0.671-1.5-1.5v-36.5c0-0.829,0.671-1.5,1.5-1.5c0.829,0,1.5,0.671,1.5,1.5v35h6v-35
				c0-0.829,0.671-1.5,1.5-1.5c0.829,0,1.5,0.671,1.5,1.5v36.5C47,78.773,46.329,79.444,45.5,79.444z"/>
		</g>
		<g>
			<path style="fill:#c39b7c;"  d="M27.5,79.444h-9c-0.829,0-1.5-0.671-1.5-1.5v-36.5c0-0.829,0.671-1.5,1.5-1.5c0.829,0,1.5,0.671,1.5,1.5v35h6v-35
				c0-0.829,0.671-1.5,1.5-1.5c0.829,0,1.5,0.671,1.5,1.5v36.5C29,78.773,28.329,79.444,27.5,79.444z"/>
		</g>
		<g>
			<path style="fill:#c39b7c;" d="M82,88.444H18c-0.829,0-1.5-0.671-1.5-1.5c0-0.829,0.671-1.5,1.5-1.5h64c0.829,0,1.5,0.671,1.5,1.5
				C83.5,87.773,82.829,88.444,82,88.444z"/>
		</g>
		<g>
			<path style="fill:#c39b7c;" d="M82,34.444H18c-0.829,0-1.5-0.671-1.5-1.5c0-0.829,0.671-1.5,1.5-1.5h64c0.829,0,1.5,0.671,1.5,1.5
				C83.5,33.773,82.829,34.444,82,34.444z"/>
		</g>
		<g>
			<path style="fill:#c39b7c;" d="M18.002,34.444c-0.505,0-0.998-0.254-1.28-0.716c-0.433-0.707-0.211-1.63,0.495-2.062l32.457-19.888
				c0.487-0.298,1.101-0.294,1.584,0.01L82.8,31.675c0.701,0.442,0.911,1.368,0.469,2.069c-0.442,0.701-1.368,0.91-2.069,0.469
				L50.446,14.822L18.784,34.223C18.539,34.373,18.269,34.444,18.002,34.444z"/>
		</g>
	</g>
</g>
</svg>
